<?xml version="1.0" encoding="us-ascii" standalone="no"?><svg xmlns="http://www.w3.org/2000/svg" xmlns:xlink="http://www.w3.org/1999/xlink" contentStyleType="text/css" height="631.25px" preserveAspectRatio="none" style="width:598px;height:631px;" version="1.1" viewBox="0 0 598 631" width="598.9583px" zoomAndPan="magnify"><defs><linearGradient id="g13hjub1on4dwl0" x1="50%" x2="50%" y1="0%" y2="100%"><stop offset="0%" stop-color="#33B2E2"/><stop offset="100%" stop-color="#009FDB"/></linearGradient><linearGradient id="g13hjub1on4dwl1" x1="50%" x2="50%" y1="0%" y2="100%"><stop offset="0%" stop-color="#FFFFFF"/><stop offset="100%" stop-color="#D2D2D2"/></linearGradient></defs><g><line style="stroke:#C2C2C2;stroke-width:1.0416666666666667;stroke-dasharray:5.0,5.0;" x1="58.3333" x2="58.3333" y1="105.1758" y2="461.1979"/><line style="stroke:#C2C2C2;stroke-width:1.0416666666666667;stroke-dasharray:5.0,5.0;" x1="352.6042" x2="352.6042" y1="105.1758" y2="461.1979"/><line style="stroke:#C2C2C2;stroke-width:1.0416666666666667;stroke-dasharray:5.0,5.0;" x1="511.9792" x2="511.9792" y1="105.1758" y2="461.1979"/><text fill="#009FDB" font-family="Verdana" font-size="12.5" lengthAdjust="spacing" textLength="62.5" x="23.9583" y="93.8944">Customer</text><ellipse cx="58.3333" cy="19.7917" fill="url(#g13hjub1on4dwl0)" rx="8.3333" ry="8.3333" style="stroke:#33B2E2;stroke-width:1.0416666666666667;"/><path d="M58.3333,28.125 L58.3333,56.25 M44.7917,36.4583 L71.875,36.4583 M58.3333,56.25 L44.7917,71.875 M58.3333,56.25 L71.875,71.875 " fill="none" style="stroke:#33B2E2;stroke-width:1.0416666666666667;"/><text fill="#009FDB" font-family="Verdana" font-size="12.5" lengthAdjust="spacing" textLength="62.5" x="23.9583" y="480.0924">Customer</text><ellipse cx="58.3333" cy="500.7487" fill="url(#g13hjub1on4dwl0)" rx="8.3333" ry="8.3333" style="stroke:#33B2E2;stroke-width:1.0416666666666667;"/><path d="M58.3333,509.082 L58.3333,537.207 M44.7917,517.4154 L71.875,517.4154 M58.3333,537.207 L44.7917,552.832 M58.3333,537.207 L71.875,552.832 " fill="none" style="stroke:#33B2E2;stroke-width:1.0416666666666667;"/><rect fill="url(#g13hjub1on4dwl0)" height="45.8008" rx="10.4167" ry="10.4167" style="stroke:#33B2E2;stroke-width:1.0416666666666667;" width="94.7917" x="305.7292" y="58.3333"/><text fill="#FFFFFF" font-family="Verdana" font-size="12.5" lengthAdjust="spacing" textLength="63.5417" x="321.3542" y="85.5611">Terraform</text><rect fill="url(#g13hjub1on4dwl0)" height="45.8008" rx="10.4167" ry="10.4167" style="stroke:#33B2E2;stroke-width:1.0416666666666667;" width="94.7917" x="305.7292" y="460.1563"/><text fill="#FFFFFF" font-family="Verdana" font-size="12.5" lengthAdjust="spacing" textLength="63.5417" x="321.3542" y="487.384">Terraform</text><rect fill="url(#g13hjub1on4dwl0)" height="45.8008" rx="10.4167" ry="10.4167" style="stroke:#33B2E2;stroke-width:1.0416666666666667;" width="72.9167" x="477.6042" y="54.1667"/><rect fill="url(#g13hjub1on4dwl0)" height="45.8008" rx="10.4167" ry="10.4167" style="stroke:#33B2E2;stroke-width:1.0416666666666667;" width="72.9167" x="473.4375" y="58.3333"/><text fill="#FFFFFF" font-family="Verdana" font-size="12.5" lengthAdjust="spacing" textLength="41.6667" x="489.0625" y="85.5611">OneFS</text><rect fill="url(#g13hjub1on4dwl0)" height="45.8008" rx="10.4167" ry="10.4167" style="stroke:#33B2E2;stroke-width:1.0416666666666667;" width="72.9167" x="477.6042" y="460.1563"/><rect fill="url(#g13hjub1on4dwl0)" height="45.8008" rx="10.4167" ry="10.4167" style="stroke:#33B2E2;stroke-width:1.0416666666666667;" width="72.9167" x="473.4375" y="464.3229"/><text fill="#FFFFFF" font-family="Verdana" font-size="12.5" lengthAdjust="spacing" textLength="41.6667" x="489.0625" y="491.5507">OneFS</text><rect fill="url(#g13hjub1on4dwl1)" height="3.125" rx="10.4167" ry="10.4167" style="stroke:url(#g13hjub1on4dwl1);stroke-width:1.0416666666666667;" width="576.5625" x="10.4167" y="144.7428"/><line style="stroke:#959595;stroke-width:1.0416666666666667;" x1="10.4167" x2="586.9792" y1="144.7428" y2="144.7428"/><line style="stroke:#959595;stroke-width:1.0416666666666667;" x1="10.4167" x2="586.9792" y1="147.8678" y2="147.8678"/><rect fill="url(#g13hjub1on4dwl1)" height="39.5508" rx="10.4167" ry="10.4167" style="stroke:#959595;stroke-width:2.0833333333333335;" width="230.2083" x="183.5938" y="126.0091"/><text fill="#5A5A5A" font-family="Verdana" font-size="12.5" font-weight="bold" lengthAdjust="spacing" textLength="194.7917" x="198.1771" y="150.1119">Deploy Terraform Modules</text><ellipse cx="352.6042" cy="212.6628" fill="none" rx="4.1667" ry="4.1667" style="stroke:#009FDB;stroke-width:1.5625;"/><polygon fill="#009FDB" points="334.8958,209.2773,345.3125,213.444,334.8958,217.6107,339.0625,213.444" style="stroke:#009FDB;stroke-width:1.0416666666666667;"/><line style="stroke:#009FDB;stroke-width:3.125;stroke-dasharray:2.0,2.0;" x1="58.3333" x2="341.1458" y1="213.444" y2="213.444"/><text fill="#5A5A5A" font-family="Verdana" font-size="12.5" lengthAdjust="spacing" textLength="205.2083" x="73.9583" y="200.0793">Deploy Resource Group module</text><ellipse cx="57.8125" cy="258.4635" fill="none" rx="4.1667" ry="4.1667" style="stroke:#009FDB;stroke-width:1.5625;"/><polygon fill="#009FDB" points="75.5208,255.0781,65.1042,259.2448,75.5208,263.4115,71.3542,259.2448" style="stroke:#009FDB;stroke-width:1.0416666666666667;"/><line style="stroke:#009FDB;stroke-width:3.125;stroke-dasharray:2.0,2.0;" x1="73.4375" x2="352.0833" y1="259.2448" y2="259.2448"/><text fill="#5A5A5A" font-family="Verdana" font-size="12.5" lengthAdjust="spacing" textLength="236.4583" x="84.375" y="245.8801">Wait for terraform apply to complete</text><ellipse cx="352.6042" cy="304.2643" fill="none" rx="4.1667" ry="4.1667" style="stroke:#009FDB;stroke-width:1.5625;"/><polygon fill="#009FDB" points="334.8958,300.8789,345.3125,305.0456,334.8958,309.2122,339.0625,305.0456" style="stroke:#009FDB;stroke-width:1.0416666666666667;"/><line style="stroke:#009FDB;stroke-width:3.125;stroke-dasharray:2.0,2.0;" x1="58.3333" x2="341.1458" y1="305.0456" y2="305.0456"/><text fill="#5A5A5A" font-family="Verdana" font-size="12.5" lengthAdjust="spacing" textLength="253.125" x="73.9583" y="291.6809">Deploy Network Security Group module</text><ellipse cx="57.8125" cy="350.0651" fill="none" rx="4.1667" ry="4.1667" style="stroke:#009FDB;stroke-width:1.5625;"/><polygon fill="#009FDB" points="75.5208,346.6797,65.1042,350.8464,75.5208,355.013,71.3542,350.8464" style="stroke:#009FDB;stroke-width:1.0416666666666667;"/><line style="stroke:#009FDB;stroke-width:3.125;stroke-dasharray:2.0,2.0;" x1="73.4375" x2="352.0833" y1="350.8464" y2="350.8464"/><text fill="#5A5A5A" font-family="Verdana" font-size="12.5" lengthAdjust="spacing" textLength="236.4583" x="84.375" y="337.4817">Wait for terraform apply to complete</text><ellipse cx="352.6042" cy="395.8659" fill="none" rx="4.1667" ry="4.1667" style="stroke:#009FDB;stroke-width:1.5625;"/><polygon fill="#009FDB" points="334.8958,392.4805,345.3125,396.6471,334.8958,400.8138,339.0625,396.6471" style="stroke:#009FDB;stroke-width:1.0416666666666667;"/><line style="stroke:#009FDB;stroke-width:3.125;" x1="58.3333" x2="341.1458" y1="396.6471" y2="396.6471"/><text fill="#5A5A5A" font-family="Verdana" font-size="12.5" lengthAdjust="spacing" textLength="140.625" x="73.9583" y="383.2825">Deploy OneFS Module</text><ellipse cx="57.8125" cy="441.6667" fill="none" rx="4.1667" ry="4.1667" style="stroke:#009FDB;stroke-width:1.5625;"/><polygon fill="#009FDB" points="75.5208,438.2813,65.1042,442.4479,75.5208,446.6146,71.3542,442.4479" style="stroke:#009FDB;stroke-width:1.0416666666666667;"/><line style="stroke:#009FDB;stroke-width:3.125;" x1="73.4375" x2="352.0833" y1="442.4479" y2="442.4479"/><text fill="#5A5A5A" font-family="Verdana" font-size="12.5" lengthAdjust="spacing" textLength="236.4583" x="84.375" y="429.0833">Wait for terraform apply to complete</text><text fill="#808080" font-family="Verdana" font-size="10.4167" lengthAdjust="spacing" textLength="326.0417" x="135.1563" y="590.626">Copyright (c) 2024 Dell Inc. or its subsidiaries. All rights reserved.</text><!--SRC=[jP5FImCn4CNl-HJFcnwwIF5Kt8AqA1vKi8BdD3lR1hCxOJ9HzjiR5ziLwKdm_FxyXdbdkgUEi0sPTc87OwnJ5gnoKkv8Z8bMr3iVRQzu8H7RidJ6SGZar7EVyDJJxSQOkiQQOk1Xik61cnmeeQxDeH6psP8do-8GUgR4MHpXJZX7T6FIJ5LZx7ZN0g_MAue2FLfiZ660CXntCP3IB-W9wYFf1yiRDkIoU1t-YNuQFZxk-qS_MNz0cPQvwBXkkUnKrc6fl_PShZWEudTxnRcxmFnoVbNe8U2-TnLAgTU4bBV9DzwAfrJXfgXZ8a4eaRnJKtq2]--></g></svg>